<svg width="162" height="48" viewBox="0 0 162 48" fill="none" xmlns="http://www.w3.org/2000/svg">
<g clip-path="url(#clip0_511_448)">
<path fill-rule="evenodd" clip-rule="evenodd" d="M61.7733 38.1213C61.8809 37.0244 61.7661 35.9923 61.4293 35.0245C61.159 31.5212 60.0123 28.2696 57.9898 25.2697C54.8437 25.4843 51.6908 25.7423 48.5312 26.0439C39.052 26.1086 30.7972 23.3215 23.7669 17.6826C21.2124 23.5959 16.569 27.4669 9.83698 29.2955C9.14299 30.1902 8.68437 31.1706 8.46118 32.2375C7.66219 34.7765 7.54755 37.3573 8.11723 39.9794C7.46703 40.0423 6.95111 39.836 6.56946 39.36C3.69948 36.3605 1.63579 32.954 0.378377 29.1407C-0.493397 24.6166 1.39832 21.5198 6.05354 19.8504C4.38009 16.059 5.52657 13.2202 9.49303 11.3342C10.749 11.1797 12.0101 11.1283 13.2765 11.1794C14.3337 3.93944 18.9196 0.584704 27.0344 1.11487C29.4077 1.45954 31.3568 2.44029 32.8816 4.05681C35.9059 0.688755 39.8039 -0.498238 44.5758 0.495517C50.1901 1.31771 53.3427 4.25965 54.0344 9.32132C56.6429 8.32076 59.0506 8.63043 61.2574 10.2504C61.6959 10.9369 62.0398 11.6597 62.2892 12.4181C62.3112 13.7816 62.3687 15.1234 62.4612 16.4439C65.3153 17.2073 67.207 18.8591 68.1363 21.3987C69.2844 27.8961 67.6792 33.78 63.3211 39.0504C62.1303 39.9001 61.6144 39.5904 61.7733 38.1213Z" fill="#24282B"/>
<path fill-rule="evenodd" clip-rule="evenodd" d="M82.9804 11.9735C84.1743 11.887 85.1133 12.2895 85.7974 13.1812C88.903 19.3369 92.0778 25.4563 95.3213 31.5389C98.4991 25.3338 101.674 19.1342 104.845 12.9397C105.492 12.1445 106.342 11.8626 107.394 12.0943C109.052 12.4607 110.439 13.2255 111.552 14.389C111.731 15.0332 111.731 15.6772 111.552 16.3214C107.229 24.3889 102.802 32.4 98.2724 40.3554C96.8865 41.1656 95.3664 41.4071 93.7116 41.0801C92.8902 40.8238 92.2195 40.381 91.6995 39.7516C87.6673 32.2488 83.5535 24.7608 79.3587 17.2876C78.6987 16.2603 78.6093 15.2134 79.0904 14.1474C80.2555 13.2018 81.5524 12.4771 82.9804 11.9735Z" fill="#25282B"/>
<path fill-rule="evenodd" clip-rule="evenodd" d="M125.775 26.7088C125.26 26.0279 124.679 25.3837 124.031 24.7764C123.897 29.3651 123.852 33.9545 123.897 38.5447C124.024 39.8625 123.398 40.708 122.019 41.0809C120.588 41.242 119.157 41.242 117.726 41.0809C116.878 40.7234 116.386 40.1196 116.251 39.2693C116.072 30.8955 116.072 22.522 116.251 14.1483C116.462 13.4036 116.953 12.8804 117.726 12.5782C119.448 12.3681 121.147 12.4487 122.824 12.8198C126.46 16.857 130.037 20.923 133.555 25.018C136.791 21.3672 139.966 17.6635 143.079 13.9067C144.055 12.6224 145.396 12.1393 147.103 12.4574C149.08 12.0569 150.332 12.7012 150.859 14.3898C151.038 22.6829 151.038 30.9762 150.859 39.2693C150.724 40.1196 150.232 40.7234 149.383 41.0809C147.953 41.242 146.522 41.242 145.091 41.0809C144.461 40.9973 143.969 40.7155 143.615 40.2355C143.267 35.098 143.088 29.9448 143.079 24.7764C140.709 27.5542 138.339 30.332 135.969 33.1098C133.768 34.3881 131.845 34.1065 130.201 32.2644C128.723 30.4054 127.248 28.5535 125.775 26.7088Z" fill="#25282B"/>
<path fill-rule="evenodd" clip-rule="evenodd" d="M61.4293 35.0246C61.4744 35.2534 61.417 35.46 61.2574 35.6439C60.8862 35.0574 60.4274 34.9543 59.8816 35.3342C59.7877 33.8698 59.5586 32.4245 59.1937 30.9987C58.7954 30.3822 58.2794 29.8659 57.6459 29.4504C57.8265 29.2361 58.0559 29.0812 58.3338 28.9858C57.8172 28.8053 57.3587 28.5473 56.958 28.2116C57.3907 28.3714 57.7346 28.1652 57.9898 27.5923C57.1967 27.2337 56.2794 27.1823 55.2383 27.4375C55.739 27.3065 55.911 27.0485 55.7542 26.6633C54.5008 27.1343 53.1825 27.3926 51.7988 27.4375C51.9133 27.5406 52.0282 27.644 52.1427 27.7471C51.3224 28.2002 50.9784 28.871 51.1109 29.76C51.181 31.7091 52.3278 32.5865 54.5504 32.3923C54.8382 32.7054 54.9528 33.0668 54.8943 33.4762C54.0117 33.5245 53.1519 33.421 52.3147 33.1665C51.8744 33.2015 51.5879 33.408 51.4548 33.7858C52.6954 34.0921 53.9567 34.1955 55.2383 34.0955C55.3425 35.2528 55.6864 36.3367 56.2701 37.3471C55.6837 38.8119 55.2252 40.3086 54.8943 41.8375C53.3582 42.2691 51.8676 42.7854 50.423 43.3858C47.3539 43.1362 44.2584 42.9814 41.1363 42.9213C40.7233 42.6417 40.4364 42.2806 40.2765 41.8375C40.0471 38.6376 40.0471 35.4374 40.2765 32.2375C40.563 31.9795 40.8498 31.7212 41.1363 31.4633C44.1173 31.3601 47.098 31.2567 50.079 31.1536C50.9963 30.4311 50.9963 29.7083 50.079 28.9858C47.098 28.7793 44.1173 28.7793 41.1363 28.9858C39.3313 29.5265 38.1849 30.6104 37.6969 32.2375C37.3577 33.6217 37.2432 35.067 37.3529 36.5729C35.6332 36.5729 33.9134 36.5729 32.1937 36.5729C32.8307 33.8041 32.0282 31.4815 29.786 29.6052C29.2402 29.3383 28.6668 29.1317 28.0663 28.9858C25.2001 28.7793 22.3337 28.7793 19.4676 28.9858C18.5502 29.7083 18.5502 30.4311 19.4676 31.1536C22.4486 31.2567 25.4292 31.3601 28.4102 31.4633C28.6967 31.7212 28.9836 31.9795 29.2701 32.2375C29.4995 35.5408 29.4995 38.8438 29.2701 42.1471C28.9595 42.5191 28.5585 42.7773 28.0663 42.9213C25.0787 42.9734 22.0981 43.1282 19.1236 43.3858C18.867 43.7686 18.7525 44.1817 18.7797 44.6246C18.4584 44.9553 18.3435 45.3681 18.4357 45.8633C18.0918 45.8633 17.7478 45.8633 17.4039 45.8633C17.6171 44.9838 17.8465 44.1062 18.0918 43.231C16.9951 42.8235 15.8486 42.6686 14.6523 42.7665C14.0184 41.6247 13.7891 40.386 13.9644 39.0504C14.3685 39.1182 14.7125 39.0151 14.9962 38.7407C14.4647 38.4459 13.8914 38.3427 13.2765 38.431C13.4505 36.563 13.7371 34.705 14.1363 32.8568C15.0215 32.0743 16.1107 31.7129 17.4039 31.7729C18.056 31.213 18.228 30.542 17.9198 29.76C17.7764 29.3711 17.4898 29.1645 17.0599 29.1407C16.9453 29.1407 16.8306 29.1407 16.716 29.1407C15.9265 28.5569 15.0093 28.4021 13.9644 28.6762C12.4233 29.0326 11.0475 29.6002 9.83698 30.3794C9.79484 31.244 9.33626 31.8634 8.46118 32.2375C8.68437 31.1706 9.14299 30.1902 9.83698 29.2955C16.569 27.4669 21.2124 23.5959 23.7669 17.6826C30.7972 23.3215 39.052 26.1086 48.5312 26.0439C51.6908 25.7423 54.8437 25.4843 57.9898 25.2697C60.0123 28.2696 61.159 31.5212 61.4293 35.0246Z" fill="#FAFBFA"/>
<path fill-rule="evenodd" clip-rule="evenodd" d="M136.745 26.7283C136.579 26.7551 136.445 26.8355 136.343 26.9698C135.769 26.6012 135.456 26.1986 135.404 25.7621C135.225 30.0687 135.046 34.3359 134.867 38.5642C134.822 33.974 134.867 29.3846 135.001 24.7959C135.649 25.4032 136.23 26.0474 136.745 26.7283Z" fill="#DFE0E1"/>
<path fill-rule="evenodd" clip-rule="evenodd" d="M61.4293 35.0245C61.7661 35.9922 61.8809 37.0244 61.7733 38.1213C59.7808 38.9806 59.2074 40.3742 60.0535 42.3019C59.2329 43.2508 58.545 44.2829 57.9899 45.3987C56.2901 45.8099 54.5703 45.9131 52.8306 45.7084C52.6394 45.5898 52.5248 45.4349 52.4867 45.2439C51.7802 45.2857 51.2068 45.0791 50.7669 44.6245C50.79 44.1727 50.6754 43.7599 50.423 43.3858C51.8676 42.7853 53.3582 42.2691 54.8943 41.8374C55.2252 40.3085 55.6837 38.8119 56.2701 37.3471C55.6864 36.3366 55.3425 35.2527 55.2383 34.0955C53.9567 34.1955 52.6954 34.0921 51.4548 33.7858C51.5879 33.408 51.8744 33.2014 52.3147 33.1664C53.1519 33.421 54.0117 33.5244 54.8943 33.4761C54.9528 33.0667 54.8382 32.7053 54.5504 32.3922C52.3278 32.5864 51.181 31.7091 51.1109 29.76C50.9785 28.8709 51.3224 28.2001 52.1427 27.7471C52.0282 27.644 51.9133 27.5405 51.7988 27.4374C53.1825 27.3925 54.5008 27.1342 55.7542 26.6632C55.911 27.0484 55.7391 27.3064 55.2383 27.4374C56.2794 27.1822 57.1967 27.2336 57.9899 27.5922C57.7346 28.1651 57.3907 28.3714 56.958 28.2116C57.3587 28.5473 57.8172 28.8052 58.3338 28.9858C58.0559 29.0812 57.8265 29.236 57.6459 29.4503C58.2795 29.8659 58.7954 30.3821 59.1937 30.9987C59.5586 32.4244 59.7877 33.8697 59.8816 35.3342C60.4274 34.9542 60.8862 35.0573 61.2574 35.6439C61.417 35.4599 61.4744 35.2534 61.4293 35.0245Z" fill="#FBF3E1"/>
<path fill-rule="evenodd" clip-rule="evenodd" d="M16.7159 29.1406C16.8305 29.1406 16.9452 29.1406 17.0598 29.1406C17.4906 29.7101 17.4906 30.2778 17.0598 30.8439C15.8494 31.1077 14.7029 31.4691 13.6204 31.9277C13.6902 31.4496 13.9195 31.0365 14.3083 30.689C13.5032 30.3137 12.758 30.4171 12.0726 30.9987C11.7793 32.2278 11.55 33.4665 11.3847 34.7148C11.154 34.9477 10.8674 35.0511 10.5248 35.0245C9.96064 32.3765 10.9925 30.4667 13.6204 29.2955C14.6459 29.1413 15.6777 29.0895 16.7159 29.1406Z" fill="#E5A058"/>
<path fill-rule="evenodd" clip-rule="evenodd" d="M16.7193 29.1407C15.6811 29.0896 14.6493 29.1413 13.6238 29.2955C10.9959 30.4667 9.96404 32.3765 10.5282 35.0245C10.5282 35.2311 10.5282 35.4373 10.5282 35.6439C8.25626 36.6863 8.25626 37.8218 10.5282 39.0503C10.4574 40.4123 10.572 41.7544 10.8722 43.0761C10.2088 43.1594 9.63557 43.0046 9.15242 42.6116C9.42724 42.07 9.19796 41.6572 8.46453 41.3729C8.69384 41.1664 8.92311 40.9601 9.15242 40.7536C8.69384 40.4439 8.69384 40.1342 9.15242 39.8245C8.78206 39.679 8.43811 39.7307 8.12058 39.9794C7.55089 37.3573 7.66553 34.7765 8.46453 32.2374C9.3396 31.8633 9.79819 31.244 9.84032 30.3794C11.0508 29.6002 12.4266 29.0326 13.9677 28.6761C15.0126 28.4021 15.9298 28.5569 16.7193 29.1407Z" fill="#F6F5EA"/>
<path fill-rule="evenodd" clip-rule="evenodd" d="M13.6204 31.9277C13.1064 33.7656 12.6478 35.6237 12.2446 37.5019C12.3627 39.1785 12.6493 40.83 13.1045 42.4567C13.4862 42.9327 14.0021 43.1389 14.6523 43.0761C14.7669 43.0761 14.8816 43.0761 14.9962 43.0761C15.0691 43.6595 15.413 44.0723 16.0281 44.3148C15.7415 44.4179 15.4548 44.5213 15.1682 44.6245C14.2775 44.1643 13.303 43.9577 12.2446 44.0051C12.0153 43.7986 11.786 43.5923 11.5567 43.3858C11.479 41.8148 11.1351 40.3698 10.5249 39.0503C10.2915 38.3789 9.94754 37.7595 9.49304 37.1922C9.75668 36.6171 10.1006 36.1009 10.5249 35.6438C10.5249 35.4373 10.5249 35.231 10.5249 35.0245C10.8674 35.0511 11.154 34.9477 11.3848 34.7148C11.5501 33.4665 11.7794 32.2278 12.0727 30.9987C12.7581 30.4171 13.5033 30.3137 14.3083 30.689C13.9196 31.0364 13.6903 31.4495 13.6204 31.9277Z" fill="#F3943C"/>
<path fill-rule="evenodd" clip-rule="evenodd" d="M32.1937 36.5729C33.62 36.8284 35.1107 36.9833 36.665 37.0375C35.9444 37.2096 35.887 37.3645 36.493 37.502C37.009 37.3471 37.5249 37.1923 38.0408 37.0375C37.7068 35.4668 37.592 33.867 37.6969 32.2375C38.1849 30.6104 39.3313 29.5265 41.1364 28.9858C44.1174 28.7793 47.098 28.7793 50.079 28.9858C50.9963 29.7083 50.9963 30.4311 50.079 31.1536C47.098 31.2567 44.1174 31.3601 41.1364 31.4633C40.8498 31.7212 40.563 31.9795 40.2765 32.2375C40.0471 35.4374 40.0471 38.6376 40.2765 41.8375C40.4364 42.2806 40.7233 42.6417 41.1364 42.9213C44.2584 42.9814 47.3539 43.1363 50.423 43.3859C50.6754 43.7599 50.79 44.1727 50.7669 44.6246C50.6111 44.9212 50.382 45.1795 50.079 45.3988C46.8428 45.6827 43.6327 45.5796 40.4485 45.0891C37.9555 43.7178 36.9237 41.7049 37.3529 39.0504C35.6332 39.0504 33.9134 39.0504 32.1937 39.0504C32.2105 44.1913 29.3441 46.3591 23.595 45.5536C22.3337 45.5019 21.0728 45.4505 19.8115 45.3988C19.3155 45.282 18.9716 45.024 18.7797 44.6246C18.7525 44.1817 18.867 43.7686 19.1236 43.3859C22.0981 43.1282 25.0787 42.9734 28.0663 42.9213C28.5585 42.7773 28.9595 42.5191 29.2701 42.1471C29.4995 38.8438 29.4995 35.5408 29.2701 32.2375C28.9836 31.9795 28.6967 31.7212 28.4102 31.4633C25.4292 31.3601 22.4486 31.2567 19.4676 31.1536C18.5503 30.4311 18.5503 29.7083 19.4676 28.9858C22.3337 28.7793 25.2002 28.7793 28.0663 28.9858C28.6668 29.1317 29.2402 29.3383 29.786 29.6052C32.0282 31.4815 32.8307 33.8041 32.1937 36.5729Z" fill="#2E3032"/>
<path fill-rule="evenodd" clip-rule="evenodd" d="M19.8115 35.0246C21.9667 34.5963 23.228 35.3188 23.5949 37.1923C23.2108 39.1222 21.9498 39.793 19.8115 39.2052C17.9862 37.773 17.9862 36.3794 19.8115 35.0246Z" fill="#292C2E"/>
<path fill-rule="evenodd" clip-rule="evenodd" d="M37.6968 32.2374C37.5919 33.8669 37.7068 35.4667 38.0407 37.0374C37.5248 37.1923 37.0089 37.3471 36.493 37.5019C35.8869 37.3644 35.9444 37.2096 36.6649 37.0374C35.1106 36.9832 33.62 36.8284 32.1936 36.5729C33.9133 36.5729 35.6331 36.5729 37.3528 36.5729C37.2431 35.0669 37.3577 33.6217 37.6968 32.2374Z" fill="#4C4C4E"/>
<path fill-rule="evenodd" clip-rule="evenodd" d="M47.3274 35.0215C49.7932 34.7158 50.997 35.6449 50.9389 37.8086C49.8372 39.4858 48.3469 39.7955 46.4675 38.7376C45.5977 37.2313 45.8842 35.9926 47.3274 35.0215Z" fill="#272A2C"/>
<path fill-rule="evenodd" clip-rule="evenodd" d="M10.5283 35.6439C10.104 36.101 9.7601 36.6172 9.49646 37.1923C9.95095 37.7596 10.2949 38.379 10.5283 39.0504C8.25635 37.8219 8.25635 36.6863 10.5283 35.6439Z" fill="#DFAB72"/>
<path fill-rule="evenodd" clip-rule="evenodd" d="M17.0599 29.1406C17.4898 29.1645 17.7764 29.371 17.9198 29.76C18.228 30.5419 18.056 31.213 17.4039 31.7729C16.1107 31.7128 15.0215 32.0742 14.1363 32.8568C13.7371 34.7049 13.4505 36.563 13.2765 38.4309C13.8915 38.3427 14.4647 38.4458 14.9962 38.7406C14.7125 39.015 14.3685 39.1181 13.9644 39.0503C13.7891 40.3859 14.0184 41.6247 14.6523 42.7664C14.1304 42.763 13.7291 42.5568 13.4485 42.1471C13.4965 40.46 13.0952 38.9116 12.2446 37.5019C12.6478 35.6237 13.1064 33.7657 13.6204 31.9277C14.7029 31.4691 15.8494 31.1077 17.0599 30.8439C17.4907 30.2778 17.4907 29.7101 17.0599 29.1406Z" fill="#FAEED0"/>
<path fill-rule="evenodd" clip-rule="evenodd" d="M12.2446 37.502C13.0952 38.9116 13.4965 40.46 13.4485 42.1471C13.7291 42.5568 14.1304 42.7631 14.6523 42.7665C14.6523 42.8696 14.6523 42.973 14.6523 43.0761C14.0021 43.139 13.4861 42.9328 13.1045 42.4568C12.6493 40.8301 12.3627 39.1785 12.2446 37.502Z" fill="#DF9B62"/>
<path fill-rule="evenodd" clip-rule="evenodd" d="M56.614 38.4309C56.6707 39.5711 56.6136 40.7064 56.442 41.8374C56.2968 42.4338 55.8954 42.7435 55.2382 42.7664C55.5835 42.4 55.8703 41.9872 56.098 41.5277C56.1596 40.4361 56.3316 39.4036 56.614 38.4309Z" fill="#DDB279"/>
<path fill-rule="evenodd" clip-rule="evenodd" d="M10.5248 39.0503C11.135 40.3698 11.4789 41.8148 11.5566 43.3858C11.442 43.3858 11.3273 43.3858 11.2127 43.3858C11.2127 43.1792 11.0981 43.0761 10.8687 43.0761C10.5686 41.7544 10.454 40.4123 10.5248 39.0503Z" fill="#DFB175"/>
<path fill-rule="evenodd" clip-rule="evenodd" d="M60.0569 37.8147C59.8258 38.0523 59.5392 38.2588 59.197 38.4341C58.8978 40.1023 58.5538 41.7538 58.1652 43.3889C56.7061 45.0144 54.8144 45.6338 52.49 45.247C52.2431 44.74 52.186 44.2241 52.318 43.6986C53.1923 43.1777 54.1668 42.868 55.2416 42.7696C55.8989 42.7467 56.3003 42.437 56.4454 41.8405C56.6171 40.7096 56.6741 39.5743 56.6174 38.4341C57.0181 38.1256 57.2475 37.7128 57.3053 37.1954C56.5792 35.6117 56.1778 33.9602 56.1015 32.2405C55.2161 31.458 54.1272 31.0966 52.834 31.1567C52.111 30.62 51.9964 30.0006 52.49 29.2986C54.8371 28.6963 56.7288 29.2639 58.1652 31.0018C58.5645 32.4282 58.9084 33.8735 59.197 35.3373C59.8976 35.7736 60.4136 36.3416 60.7448 37.0405C60.697 37.4434 60.4679 37.7014 60.0569 37.8147Z" fill="#FD9535"/>
<path fill-rule="evenodd" clip-rule="evenodd" d="M60.0535 37.8116C59.5616 37.7871 59.1028 37.8902 58.6777 38.1213C58.4802 39.3309 58.0792 40.4665 57.4739 41.5277C57.1953 40.0679 57.3672 38.6743 57.9898 37.3471C57.5409 36.2957 57.3119 35.2118 57.3019 34.0955C57.6458 34.0955 57.9898 34.0955 58.3337 34.0955C58.3416 34.847 58.5136 35.5695 58.8497 36.2632C59.1974 36.5224 59.5988 36.6255 60.0535 36.5729C60.0535 36.9857 60.0535 37.3988 60.0535 37.8116Z" fill="#F69537"/>
<path fill-rule="evenodd" clip-rule="evenodd" d="M55.5821 43.0762C56.0406 43.0762 56.4994 43.0762 56.9579 43.0762C56.9579 43.3858 56.9579 43.6955 56.9579 44.0052C56.1579 44.2068 55.3555 44.4134 54.5503 44.6246C54.2063 44.5214 53.8624 44.418 53.5184 44.3149C54.1097 43.7414 54.7976 43.3282 55.5821 43.0762Z" fill="#F3872F"/>
<path fill-rule="evenodd" clip-rule="evenodd" d="M14.9962 43.0762C16.1759 42.8563 16.9784 43.2177 17.4039 44.16C17.3162 44.5707 17.0869 44.8804 16.716 45.0891C14.9523 45.5016 13.4618 45.1402 12.2446 44.0052C13.303 43.9578 14.2775 44.1644 15.1682 44.6246C15.4548 44.5214 15.7415 44.418 16.0281 44.3149C15.413 44.0724 15.0691 43.6596 14.9962 43.0762Z" fill="#DA9857"/>
<path fill-rule="evenodd" clip-rule="evenodd" d="M33.9169 40.2859C34.9779 40.2605 35.5513 40.725 35.6366 41.6794C35.1822 43.0538 34.8383 44.4473 34.6048 45.8601C35.4154 45.8096 36.2179 45.861 37.0124 46.0149C37.7354 46.5516 37.8499 47.171 37.3563 47.873C35.5503 48.122 33.7731 48.0703 32.0251 47.7182C31.9013 45.0689 32.5318 42.5914 33.9169 40.2859Z" fill="#28292C"/>
<path fill-rule="evenodd" clip-rule="evenodd" d="M14.6522 43.0731C14.6522 42.97 14.6522 42.8665 14.6522 42.7634C15.8485 42.6655 16.995 42.8204 18.0917 43.2279C17.8464 44.1031 17.617 44.9807 17.4038 45.8602C14.7363 46.6369 12.4433 46.0689 10.5248 44.157C10.9568 44.0278 11.1861 43.7699 11.2127 43.3828C11.3273 43.3828 11.442 43.3828 11.5566 43.3828C11.7859 43.5893 12.0152 43.7956 12.2445 44.0021C13.4617 45.1371 14.9522 45.4985 16.7159 45.086C17.0868 44.8773 17.3161 44.5676 17.4038 44.157C16.9783 43.2146 16.1758 42.8532 14.9961 43.0731C14.8815 43.0731 14.7668 43.0731 14.6522 43.0731Z" fill="#FCEFD5"/>
</g>
<defs>
<clipPath id="clip0_511_448">
<rect width="162" height="48" fill="white"/>
</clipPath>
</defs>
</svg>
